<?xml version="1.0" encoding="UTF-8"?>
<!DOCTYPE svg PUBLIC "-//W3C//DTD SVG 1.1//EN" "http://www.w3.org/Graphics/SVG/1.1/DTD/svg11.dtd">
<!-- Creator: CorelDRAW -->
<svg xmlns="http://www.w3.org/2000/svg" xml:space="preserve" width="184.242mm" height="146.251mm" version="1.1" style="shape-rendering:geometricPrecision; text-rendering:geometricPrecision; image-rendering:optimizeQuality; fill-rule:evenodd; clip-rule:evenodd"
viewBox="0 0 18424.2 14625.1"
 xmlns:xlink="http://www.w3.org/1999/xlink"
 xmlns:xodm="http://www.corel.com/coreldraw/odm/2003">
 <defs>
  <style type="text/css">
   <![CDATA[
    .fil25 {fill:black;fill-rule:nonzero}
    .fil33 {fill:#131F49;fill-rule:nonzero}
    .fil29 {fill:#1F3163;fill-rule:nonzero}
    .fil18 {fill:#203570;fill-rule:nonzero}
    .fil17 {fill:#22397C;fill-rule:nonzero}
    .fil2 {fill:#253C8C;fill-rule:nonzero}
    .fil23 {fill:#5C93D6;fill-rule:nonzero}
    .fil1 {fill:#6577B0;fill-rule:nonzero}
    .fil3 {fill:#A5B2D4;fill-rule:nonzero}
    .fil26 {fill:#B3B3B3;fill-rule:nonzero}
    .fil28 {fill:#CCCCCC;fill-rule:nonzero}
    .fil30 {fill:#E5EDF8;fill-rule:nonzero}
    .fil24 {fill:#EFC397;fill-rule:nonzero}
    .fil27 {fill:#F2F2F2;fill-rule:nonzero}
    .fil21 {fill:#F4B68C;fill-rule:nonzero}
    .fil0 {fill:#F9A61A;fill-rule:nonzero}
    .fil19 {fill:#F9C5A2;fill-rule:nonzero}
    .fil16 {fill:white;fill-rule:nonzero}
    .fil15 {fill:white;fill-rule:nonzero;fill-opacity:0.019608}
    .fil9 {fill:black;fill-rule:nonzero;fill-opacity:0.027451}
    .fil10 {fill:white;fill-rule:nonzero;fill-opacity:0.047059}
    .fil32 {fill:black;fill-rule:nonzero;fill-opacity:0.050980}
    .fil4 {fill:#253C8C;fill-rule:nonzero;fill-opacity:0.050980}
    .fil22 {fill:white;fill-rule:nonzero;fill-opacity:0.101961}
    .fil31 {fill:#054D6D;fill-rule:nonzero;fill-opacity:0.200000}
    .fil13 {fill:#8C909B;fill-rule:nonzero;fill-opacity:0.250980}
    .fil12 {fill:#AEBBEB;fill-rule:nonzero;fill-opacity:0.250980}
    .fil8 {fill:#D3D7E1;fill-rule:nonzero;fill-opacity:0.250980}
    .fil20 {fill:#6577B0;fill-rule:nonzero;fill-opacity:0.301961}
    .fil14 {fill:#8C909B;fill-rule:nonzero;fill-opacity:0.501961}
    .fil11 {fill:#AEBBEB;fill-rule:nonzero;fill-opacity:0.501961}
    .fil7 {fill:#D3D7E1;fill-rule:nonzero;fill-opacity:0.501961}
    .fil6 {fill:url(#id0);fill-rule:nonzero;fill-opacity:0.231373}
    .fil5 {fill:url(#id1);fill-rule:nonzero;fill-opacity:0.231373}
   ]]>
  </style>
  <linearGradient id="id0" gradientUnits="userSpaceOnUse" x1="14111.97" y1="8019.5" x2="10328.42" y2="7993.04">
   <stop offset="0" style="stop-opacity:1; stop-color:black"/>
   <stop offset="0.141176" style="stop-opacity:1; stop-color:black"/>
   <stop offset="0.25098" style="stop-opacity:1; stop-color:#424242"/>
   <stop offset="0.368627" style="stop-opacity:1; stop-color:#7B7B7B"/>
   <stop offset="0.478431" style="stop-opacity:1; stop-color:#AAAAAA"/>
   <stop offset="0.580392" style="stop-opacity:1; stop-color:#CFCFCF"/>
   <stop offset="0.678431" style="stop-opacity:1; stop-color:#E9E9E9"/>
   <stop offset="0.768627" style="stop-opacity:1; stop-color:#F9F9F9"/>
   <stop offset="0.839216" style="stop-opacity:1; stop-color:white"/>
   <stop offset="1" style="stop-opacity:1; stop-color:white"/>
  </linearGradient>
  <linearGradient id="id1" gradientUnits="userSpaceOnUse" xlink:href="#id0" x1="16731.34" y1="8019.5" x2="12921.34" y2="7993.04">
  </linearGradient>
 </defs>
 <g id="Layer_x0020_1">
  <metadata id="CorelCorpID_0Corel-Layer"/>
  <g id="_2019292740576">
   <path class="fil0" d="M18.44 1991.63c-183.95,-1037.31 610.96,-1989.01 1664.45,-1989.01 2979.06,0 8451.41,0 10762.21,0 2657.18,0 4061.99,0.01 4761.73,1346.58 362.37,697.32 295.88,1524.37 149.46,2296.48l-1294.97 6829.05c-102.87,542.43 -572.54,937.98 -1124.54,947.13l-12215.07 202.01c-571.72,9.45 -1065.68,-397.69 -1165.52,-960.73l-1537.75 -8671.51z"/>
   <path class="fil1" d="M2920.23 12023.55c0,0 -60.25,-836.27 -377.59,-1438.35 -281.11,-532.5 -363.38,-585.42 -363.38,-585.42 0,0 349.68,1087.57 566.61,2043.35l174.36 -19.58z"/>
   <path class="fil1" d="M3185.16 12062.26c0,0 89.64,-1108.66 -56.81,-2019.86 -128.3,-798.03 -197.86,-960.2 -197.86,-960.2 0,0 -166.97,1155.68 149.86,2968.29l104.81 11.77z"/>
   <path class="fil1" d="M3360.97 12287.1c0,0 375.63,-1243.35 303.16,-2300.07 -63.18,-925.41 -151.34,-1120.88 -151.34,-1120.88 0,0 -518.13,1284.52 -331.55,3391.08l179.73 29.87z"/>
   <path class="fil2" d="M2985.34 12009.82c0,0 39.66,-837.22 -204.71,-1466.74 -215.98,-557.03 -291.88,-617.28 -291.88,-617.28 0,0 218.44,1115.49 320.3,2086.48l176.29 -2.46z"/>
   <path class="fil2" d="M3037.25 11947.62c0,0 -98.92,-833.34 99.43,-1475.59 175.82,-568.27 247.31,-632.93 247.31,-632.93 0,0 -138.59,1125.77 -170.92,2101.16l-175.82 7.36z"/>
   <path class="fil3" d="M3384.97 12414.47c0,0 145.94,-827.9 523.53,-1400.12 334.49,-506.54 421.67,-552.1 421.67,-552.1 0,0 -459.88,1053.27 -773.78,1986.51l-171.42 -34.29z"/>
   <path class="fil2" d="M3428.07 12141.11c0,0 -11.75,-838.2 253.18,-1460.37 234.1,-550.65 311.97,-608.94 311.97,-608.94 0,0 -255.64,1108.63 -389.84,2077.16l-175.31 -7.85z"/>
   <path class="fil2" d="M3320.83 12128.88c0,0 -98.92,-833.33 99.41,-1475.58 175.81,-568.27 247.3,-632.96 247.3,-632.96 0,0 -138.59,1125.8 -170.89,2101.19l-175.82 7.35z"/>
   <path class="fil3" d="M3065.67 11961.82c0,0 99.4,-833.33 -98.45,-1475.58 -175.31,-568.27 -246.81,-632.93 -246.81,-632.93 0,0 138.09,1125.77 169.92,2101.16l175.34 7.35z"/>
   <path class="fil3" d="M3577.45 12121.02c0,0 99.41,-833.3 -98.45,-1475.55 -175.31,-568.3 -246.83,-632.96 -246.83,-632.96 0,0 138.11,1125.8 169.94,2101.18l175.34 7.33z"/>
   <path class="fil3" d="M2558.78 11643.37l140.07 2124.21c1.96,29.9 29.37,53.39 62.68,53.39l1048.52 0c33.31,0 60.72,-23.49 62.68,-53.39l27.44 -412.49 112.63 -1711.72c2.46,-32.81 -26.43,-60.24 -62.68,-60.24l-1328.66 0c-36.22,0 -64.64,27.91 -62.68,60.24z"/>
   <path class="fil4" d="M2644.51 11583.13c99.4,750.04 577.4,1394.24 1255.18,1771.96l112.63 -1711.72c2.46,-32.81 -26.43,-60.24 -62.68,-60.24l-1305.13 0z"/>
   <g>
    <polygon class="fil5" points="13604.16,5592.56 15119.64,5592.56 15119.64,10443.75 13604.16,10443.75 "/>
    <polygon class="fil6" points="10999.76,5592.56 12515.24,5592.56 12515.24,10443.75 10999.76,10443.75 "/>
    <polygon class="fil7" points="9495.07,10608.4 9495.07,10280.05 15119.37,10280.05 15119.37,10608.4 "/>
    <polygon class="fil7" points="9494.89,5921.6 9494.89,5593.25 15119.19,5593.25 15119.19,5921.6 "/>
    <polygon class="fil7" points="9495.34,9197.67 15119.64,9197.67 15119.64,9526.02 9495.34,9526.02 "/>
    <polygon class="fil8" points="9495.34,7297.88 15119.64,7297.88 15119.64,7626.2 9495.34,7626.2 "/>
    <g>
     <polygon class="fil9" points="14690.11,7297.88 15052.35,7297.88 15052.35,7626.2 14690.11,7626.2 "/>
     <polygon class="fil9" points="14690.14,9197.67 15052.35,9197.67 15052.35,9526.02 14690.14,9526.02 "/>
    </g>
    <g>
     <polygon class="fil9" points="12101.24,7297.88 12463.48,7297.88 12463.48,7626.2 12101.24,7626.2 "/>
     <polygon class="fil9" points="12101.24,9197.67 12463.48,9197.67 12463.48,9526.02 12101.24,9526.02 "/>
    </g>
    <polygon class="fil7" points="14757.4,5592.56 15119.64,5592.56 15119.64,10607.18 14757.4,10607.18 "/>
    <g>
     <polygon class="fil10" points="12172.2,7297.88 12534.45,7297.88 12534.45,7626.2 12172.2,7626.2 "/>
     <polygon class="fil10" points="12172.2,9197.67 12534.45,9197.67 12534.45,9526.02 12172.2,9526.02 "/>
    </g>
    <g>
     <polygon class="fil10" points="9516.77,7297.88 9879.01,7297.88 9879.01,7626.2 9516.77,7626.2 "/>
     <polygon class="fil10" points="9516.77,9197.67 9879.01,9197.67 9879.01,9526.02 9516.77,9526.02 "/>
    </g>
    <polygon class="fil7" points="12153,5592.56 12515.24,5592.56 12515.24,10607.18 12153,10607.18 "/>
    <polygon class="fil7" points="9494.59,5592.56 9856.84,5592.56 9856.84,10607.18 9494.59,10607.18 "/>
    <polygon class="fil11" points="14452.09,6093.21 14757.42,6093.21 14757.42,7296.4 14452.09,7296.4 "/>
    <polygon class="fil12" points="12930.69,6093.21 13236.01,6093.21 13236.01,7296.4 12930.69,7296.4 "/>
    <polygon class="fil7" points="13236.01,6093.21 13541.34,6093.21 13541.34,7296.4 13236.01,7296.4 "/>
    <polygon class="fil7" points="14231.06,6207.08 14452.09,6207.08 14452.09,7296.4 14231.06,7296.4 "/>
    <polygon class="fil13" points="12515.98,6207.08 12737.01,6207.08 12737.01,7296.4 12515.98,7296.4 "/>
    <polygon class="fil7" points="12709.65,6207.08 12930.71,6207.08 12930.71,7296.4 12709.65,7296.4 "/>
    <polygon class="fil14" points="13886.57,6207.08 14231.06,6207.08 14231.06,7296.4 13886.57,7296.4 "/>
    <polygon class="fil11" points="13541.34,6093.21 13885.83,6093.21 13885.83,7296.4 13541.34,7296.4 "/>
    <polygon class="fil11" points="11848.41,6093.23 12153.74,6093.23 12153.74,7296.4 11848.41,7296.4 "/>
    <polygon class="fil12" points="9856.84,7191.39 10137.03,7301.56 10666.33,6198.22 10386.88,6088.02 "/>
    <polygon class="fil8" points="10644.9,6093.21 10937.63,6093.21 10937.63,7296.4 10644.9,7296.4 "/>
    <polygon class="fil8" points="11627.37,6207.08 11848.41,6207.08 11848.41,7296.4 11627.37,7296.4 "/>
    <polygon class="fil14" points="11282.15,6207.08 11626.63,6207.08 11626.63,7296.4 11282.15,7296.4 "/>
    <polygon class="fil12" points="10937.66,6093.21 11282.15,6093.21 11282.15,7296.4 10937.66,7296.4 "/>
    <polygon class="fil11" points="11866.88,7995.24 12172.2,7995.24 12172.2,9198.41 11866.88,9198.41 "/>
    <polygon class="fil12" points="10346.21,8362.78 10651.51,8362.78 10651.51,9198.41 10346.21,9198.41 "/>
    <polygon class="fil8" points="10651.51,7884.3 10956.84,7884.3 10956.84,9198.41 10651.51,9198.41 "/>
    <polygon class="fil7" points="11646.58,8109.12 11867.62,8109.12 11867.62,9198.41 11646.58,9198.41 "/>
    <polygon class="fil14" points="9857.55,7790.38 10125.18,7790.38 10125.18,9197.67 9857.55,9197.67 "/>
    <polygon class="fil7" points="10125.18,8109.12 10346.21,8109.12 10346.21,9198.41 10125.18,9198.41 "/>
    <polygon class="fil14" points="11301.33,7819.96 11645.84,7819.96 11645.84,9197.67 11301.33,9197.67 "/>
    <polygon class="fil11" points="10956.87,7995.24 11301.36,7995.24 11301.36,9198.41 10956.87,9198.41 "/>
    <polygon class="fil12" points="14452.09,7995.22 14757.42,7995.22 14757.42,9198.41 14452.09,9198.41 "/>
    <polygon class="fil7" points="13256.71,7995.22 13541.34,7995.22 13541.34,9198.41 13256.71,9198.41 "/>
    <polygon class="fil7" points="14231.06,8109.12 14452.09,8109.12 14452.09,9198.41 14231.06,9198.41 "/>
    <polygon class="fil7" points="12515.24,9105.96 12711.88,9197.67 13264.85,8230.38 13068.22,8138.7 "/>
    <polygon class="fil13" points="13886.57,8109.12 14231.06,8109.12 14231.06,9198.41 13886.57,9198.41 "/>
    <polygon class="fil11" points="13541.34,7995.22 13885.83,7995.22 13885.83,9198.41 13541.34,9198.41 "/>
    <polygon class="fil14" points="12515.95,9515.67 14758.88,9515.67 14758.88,10272.17 12515.95,10272.17 "/>
    <path class="fil8" d="M12779.87 10193.8l1715.11 0 0 -601.24 -1715.11 0 0 601.24zm1675.19 -35.51l-1636 0 0 -528.74 1636 0 0 528.74z"/>
    <path class="fil7" d="M13637.41 9998.56c63.58,0 116.08,-47.33 116.08,-105.01 0,-57.68 -51.76,-105.01 -116.08,-105.01 -63.58,0 -116.07,47.33 -116.07,105.01 0,57.68 51.75,105.01 116.07,105.01zm0 -173.78c42.15,0 76.15,31.04 76.15,68.77 0,37.7 -34,68.76 -76.15,68.76 -42.14,0 -76.14,-31.06 -76.14,-68.76 0,-37.73 34,-68.77 76.14,-68.77z"/>
    <polygon class="fil14" points="9857.58,9515.67 12153.71,9515.67 12153.71,10272.17 9857.58,10272.17 "/>
    <path class="fil7" d="M10127.4 10193.8l1755.75 0 0 -601.24 -1755.75 0 0 601.24zm1715.08 -35.51l-1674.41 0 0 -528.74 1674.41 0 0 528.74z"/>
    <path class="fil7" d="M11005.66 9998.56c65.06,0 118.29,-47.33 118.29,-105.01 0,-57.68 -53.23,-105.01 -118.29,-105.01 -65.04,0 -118.27,47.33 -118.27,105.01 0,57.68 52.49,105.01 118.27,105.01zm0 -173.78c42.89,0 77.63,31.04 77.63,68.77 0,37.7 -34.74,68.76 -77.63,68.76 -42.87,0 -77.61,-31.06 -77.61,-68.76 -0.74,-37.73 34,-68.77 77.61,-68.77z"/>
    <g>
     <polygon class="fil15" points="12242.45,5592.56 14757.42,8080.28 14757.42,7147.76 13185,5592.56 "/>
     <polygon class="fil15" points="11499.5,5592.56 14757.42,8814.61 14757.42,8348.7 11971.15,5592.56 "/>
     <polygon class="fil15" points="9856.86,6295.08 9856.86,7227.61 12943.28,10279.58 13885.83,10279.58 "/>
     <polygon class="fil15" points="9856.84,7496.05 9856.84,7961.96 12200.3,10279.58 12671.95,10279.58 "/>
    </g>
   </g>
   <path class="fil3" d="M14947.53 3904.39c304.16,-304.27 304.16,-797.61 0,-1101.89 -304.17,-304.26 -797.35,-304.26 -1101.52,0 -304.16,304.28 -304.19,797.62 0,1101.89 304.17,304.27 797.35,304.27 1101.52,0z"/>
   <path class="fil16" d="M14396.74 4065.1c393.01,0 711.63,-318.72 711.63,-711.89 0,-393.15 -318.62,-711.87 -711.63,-711.87 -393.04,0 -711.65,318.72 -711.65,711.87 0,393.17 318.61,711.89 711.65,711.89z"/>
   <polygon class="fil3" points="14414.92,2895 14378.57,2895 14378.57,3352.31 14414.92,3352.31 "/>
   <polygon class="fil3" points="14817.69,2906.86 14383.88,3340.8 14409.6,3366.52 14843.39,2932.57 "/>
   <polygon class="fil3" points="14400.18,3352.07 14395.15,3354.19 14634.66,3922.14 14639.68,3920.03 "/>
   <path class="fil3" d="M14396.74 3415.04c34.13,0 61.78,-27.67 61.78,-61.83 0,-34.13 -27.65,-61.81 -61.78,-61.81 -34.13,0 -61.8,27.68 -61.8,61.81 0,34.16 27.67,61.83 61.8,61.83z"/>
   <polygon class="fil17" points="15372.58,11550.69 14432.96,13839.47 14082.58,13798.06 14481.78,11550.69 "/>
   <path class="fil2" d="M15184.8 10596.73c0,0 -862.72,29.56 -1408.29,539.83 -565.55,529.49 -1054.92,2949.15 -1054.92,2949.15l422.11 -13.3 1122.95 -2557.23c0,0 1902.11,332.79 2446.94,-147.9 186.3,-164.92 108.67,-877.78 108.67,-877.78l-1637.46 107.23z"/>
   <path class="fil3" d="M12082.11 14516.85c133.06,-1.48 272.05,-13.31 405.11,-28.84 299.4,-35.5 567.77,-93.92 669.05,-110.91 11.83,-2.22 20.69,-15.53 19.95,-31.8l-0.74 -51.78 0 -5.16 -674.21 90.94 -461.3 62.12c0,0 -11.09,76.17 42.14,75.43z"/>
   <path class="fil18" d="M12039.97 14441.42c3.7,35.51 215.13,17.01 453.17,-15.53 307.53,-41.41 657.94,-106.5 657.94,-106.5 13.31,-1.45 23.66,-13.3 25.14,-26.61 0,-1.48 0,-2.97 0,-5.16l-22.17 -234.45 -422.89 5.19c0,0 -50.98,43.63 -120.49,94.66 -65.77,48.79 -147.85,104.28 -217.33,136.05 -145.65,66.57 -361.5,76.18 -353.37,152.35z"/>
   <path class="fil3" d="M13510.36 14088.68c109.43,11.08 224.74,14.79 335.63,14.05 249.13,-1.49 475.35,-24.4 559.62,-29.58 9.63,-0.74 18.49,-11.09 19.23,-23.66l4.45 -42.89 0.74 -4.44 -562.59 11.83 -385.15 8.14c0,0.75 -15.53,62.1 28.07,66.55z"/>
   <path class="fil18" d="M13482.29 14022.88c0,29.58 175.21,33.99 373.33,29.58 256.51,-5.93 550.75,-25.91 550.75,-25.91 11.09,0 20.69,-8.12 22.92,-19.21 0,-1.48 0.74,-2.96 0.74,-4.44l8.86 -186.35 -353.38 -42.91c0,0 -45.82,31.06 -107.92,66.57 -58.39,34.02 -130.84,71.73 -191.48,91.7 -124.94,39.93 -303.08,27.36 -303.82,90.97z"/>
   <path class="fil19" d="M13791.3 9224.18c0,0 -136.03,15.53 -221.78,24.39 -86.49,8.89 -263.92,0 -335.62,-23.65 -71.7,-23.65 -173.73,-33.28 -158.94,-59.9 12.57,-22.91 177.41,19.23 189.23,19.98 11.86,0.74 173.01,-2.23 173.01,-2.23 0,0 -164.86,-25.87 -218.09,-31.8 -42.86,-4.44 -221.78,-56.94 -215.88,-78.4 11.83,-43.63 204.79,25.17 237.31,29.58 68.02,8.89 184.1,28.1 181.87,22.94 -2.96,-5.18 -115.33,-30.32 -179.65,-36.24 -65.77,-6.65 -260.22,-93.16 -256.51,-124.23 3.68,-32.54 244.68,65.81 269.82,68.77 72.44,7.41 153.78,17.75 164.12,10.34 10.35,-6.64 -102.76,-30.32 -148.59,-49.53 -45.82,-19.23 -283.87,-91.7 -275.01,-122.76 8.87,-30.32 202.57,40.66 331.92,67.28 53.98,11.11 109.43,29.58 143.43,17.75 34.74,-11.08 55.43,-22.17 55.43,-22.17 0,0 2.97,-53.26 -83.52,-89.48 -45.09,-19.23 -87.24,-51.04 -82.05,-70.25 5.9,-18.49 70.22,28.84 101.99,28.1 31.81,-1.48 141.95,37.71 185.58,89.48 20.69,25.14 56.17,51.02 87.95,71.73 36.99,23.66 78.37,39.93 122,45.11l-68.02 215.19z"/>
   <path class="fil19" d="M15826.5 7434.57l402.88 -35.49c0,0 -11.09,-195.23 -12.57,-233.68 -0.74,-23.68 -0.74,-44.37 -0.74,-58.42 0,-14.07 0,-22.94 0,-22.94l-178.88 37.71 -2.97 0.74 -87.97 18.49 -164.86 34.77 13.3 57.68 4.45 18.49 27.36 182.65z"/>
   <path class="fil19" d="M15452.43 6785.28c5.93,41.4 24.39,42.89 44.37,86.52 11.83,26.61 25.14,68.05 36.22,142 12.57,79.11 45.83,134.59 92.39,171.55 59.91,47.34 142.69,65.09 232.89,65.09 58.39,0 114.59,-16.27 164.12,-45.11 131.58,-76.91 222.52,-242.57 222.52,-434.84 0,-265.49 -279.46,-556.84 -493.11,-549.46 -252.81,8.15 -314.16,186.37 -317.87,360.89 0.74,72.47 9.61,144.94 18.47,203.36z"/>
   <path class="fil2" d="M15466.48 6565.65c5.9,1.48 11.83,2.96 17.01,4.44 34.74,11.83 155.97,56.2 193.68,119.06 44.34,73.96 65.06,275.09 114.59,261.78 85.01,-22.91 -19.24,-195.23 30.29,-235.16 74.67,-60.64 142.69,96.12 147.85,171.56 29.58,432.62 183.36,355.7 261.7,301.73 54.72,-37.73 59.16,-90.22 172.27,-224.82 180.37,-215.92 214.37,-500.64 53.95,-587.9 -214.37,-116.84 -94.62,-352 -516.73,-296.55 -218.84,28.1 -418.44,-3.7 -525.62,-28.1 -48.05,-11.08 -94.62,20.69 -103.51,68.77 -24.39,136.81 -41.38,385.29 154.52,445.19z"/>
   <path class="fil16" d="M16933.17 7779.18c-33.26,-215.18 -303.11,-349.77 -445.77,-387.5 -58.39,-15.53 -127.9,-28.84 -204.79,-38.45l-36.22 -102.79 -464.98 32.55 -19.97 80.59c-455.38,102.79 -513.8,228.52 -580.31,439.26 -229.93,731.39 -430.27,1118.15 -430.27,1118.15l-988.38 57.68 -19.97 259.56c0,0 1130.35,252.91 1292.96,220.37 110.92,-22.17 363.73,-579.01 398.47,-757.24 0,0 -2.2,478.45 0.74,736.55 4.44,457.02 -16.99,894.05 -286.1,1160.28 -72.44,71.73 184.84,190.79 286.1,197.46l1312.2 93.92c221.03,29.58 112.37,-217.43 122.71,-317.26 34,-333.51 72.44,-756.52 98.32,-1465.71 70.99,-17.75 141.95,-46.59 184.81,-88.74 98.32,-96.87 -219.55,-1238.68 -219.55,-1238.68z"/>
   <path class="fil20" d="M16885.12 8187.38l84.27 919.22c0,0 3.71,-610.84 -84.27,-919.22z"/>
   <path class="fil20" d="M15782.13 7365.8c39.18,-8.86 79.11,-14.05 119.03,-19.24 39.93,-5.15 79.83,-8.12 120.49,-9.6 39.93,-1.48 80.6,-1.48 120.5,0.74 39.92,2.96 80.59,6.64 119.77,16.27 -19.97,-0.74 -39.92,-2.22 -59.87,-2.22 -19.98,-0.74 -39.93,-0.74 -59.9,-0.74 -39.9,0.74 -79.83,1.48 -119.76,2.96 -39.92,1.48 -79.85,3.71 -119.75,5.16l-59.87 2.97 -60.64 3.7z"/>
   <path class="fil2" d="M15623.19 6844.44c3.71,0.74 8.87,4.44 14.05,9.63l176.69 -133.11c24.39,-18.5 57.65,-18.5 82.05,0 36.96,27.36 62.09,79.11 74.66,152.32 5.19,30.32 -8.12,60.64 -34.74,76.91l-206.24 127.93c0,12.59 -1.48,22.2 -6.67,28.84 -21.43,31.8 -63.58,63.6 -96.09,79.13 -47.31,-36.96 -80.6,-92.44 -92.42,-171.55 -11.83,-74.69 -24.4,-116.1 -36.22,-142 28.83,-11.09 97.57,-34 124.93,-28.1zm308.29 99.08c23.66,-14.79 35.48,-42.14 31.04,-69.5 -15.53,-89.48 -47.31,-129.41 -71.7,-147.9 -10.35,-8.13 -23.66,-11.83 -36.22,-11.83 -13.31,0 -25.88,4.44 -36.97,12.57l-176.68 132.37c33.25,39.21 82.78,147.16 87.23,210.02l203.3 -125.73z"/>
   <path class="fil2" d="M17674.64 14146.36c-25.88,0 -50.27,5.18 -72.44,14.79l-168.57 -211.51 -1234.55 -124.22 0 -1379.94 -44.37 0 0 -815.68 -331.92 0 0 815.68 -44.37 0 0 1379.94 -1234.57 124.22 -161.9 202.64c-14.76,-3.7 -30.29,-6.66 -46.56,-6.66 -100.55,0 -181.85,81.35 -181.85,181.92 0,100.57 81.3,181.9 181.85,181.9 100.54,0 181.87,-81.33 181.87,-181.9 0,-42.89 -14.79,-82.1 -39.19,-113.16l112.37 -123.48 1187.98 0 0 3.7 113.11 0 0 188.57c-45.08,33.29 -73.92,86.52 -73.92,146.42 0,100.57 81.33,181.93 181.87,181.93 100.54,0 181.85,-81.36 181.85,-181.93 0,-59.9 -29.58,-113.13 -73.92,-146.42l0 -188.57 91.67 0 0 -3.7 1187.98 0 130.87 144.2c-16.28,27.36 -25.88,58.42 -25.88,92.44 0,100.57 81.31,181.9 181.85,181.9 100.54,0 181.87,-81.33 181.87,-181.9 0,-99.82 -81.33,-181.18 -181.13,-181.18z"/>
   <path class="fil3" d="M17376.72 10002.16l-182.59 -40.69c-25.88,-5.9 -42.15,-31.8 -36.22,-57.68l362.98 -1632.08c5.9,-25.91 31.78,-42.15 57.65,-36.25l182.59 40.67c25.88,5.92 42.15,31.8 36.25,57.67l-362.98 1632.11c-6.67,25.88 -31.81,42.15 -57.68,36.25z"/>
   <path class="fil3" d="M16531.74 10101.99c0,-77.66 -62.83,-140.52 -140.46,-140.52l-2167.5 0c-77.62,0 -140.46,62.86 -140.46,140.52l0 22.17 2448.42 0 0 -22.17z"/>
   <path class="fil17" d="M17815.85 8175.56c-51.73,-11.09 -102,21.45 -113.83,72.47l-407.35 1850.25c-11.09,51.78 21.46,102.05 72.44,113.88 51.76,11.11 102.03,-21.43 113.85,-72.47l155.26 -705.48 0 1610.65c0,204.1 -138.98,377.13 -326.76,428.17 -28.84,-62.12 -92.42,-105.75 -165.6,-105.75l-1031.27 0 -586.24 -1080.43 864.95 0c77.63,0 140.47,-62.84 140.47,-140.49l0 -22.2 -2448.45 0 0 22.2c0,77.65 62.84,140.49 140.46,140.49l1124.43 0 586.21 1080.43 -1735.03 0c-101.28,0 -182.59,82.1 -182.59,182.67 0,101.31 82.05,182.64 182.59,182.64l2943.73 0c85.03,0 156.74,-58.42 176.69,-137.53 249.87,-58.42 436.9,-282.5 436.9,-550.2l0 -2162.34 130.87 -593.09c11.82,-51.75 -20.72,-102.79 -71.73,-113.87z"/>
   <path class="fil21" d="M10634.66 7250.44c0,0 -7.38,23.66 -25.14,29.58 -17.72,5.9 -48.05,7.38 -76.14,2.22 -28.08,-5.92 -48.05,-8.14 -60.62,-9.63 -11.83,-1.48 -7.38,-26.61 -7.38,-26.61l169.28 4.44z"/>
   <path class="fil22" d="M10429.16 7148.39c37.67,60.64 116.78,97.61 203.28,89.48 -7.39,-7.4 -24.4,-12.59 -42.13,-29.58 -21.45,-21.45 -41.4,-5.92 -105.72,-42.89 -20.69,-11.11 -38.45,-17.01 -55.43,-17.01z"/>
   <path class="fil19" d="M10193.33 7253.38c5.9,-46.57 16.25,-152.32 24.4,-196.69 21.43,-118.32 41.38,-147.91 70.96,-147.91 30.29,0 41.41,119.07 34,167.12 -7.38,48.07 14.79,136.81 14.79,136.81 0,0 234.34,-304.67 333.4,-328.35 59.13,-14.05 153.78,35.51 174.47,59.91 56.19,67.31 42.88,166.39 -13.31,278.07 -63.58,126.45 -148.59,204.1 -328.22,353.49 -55.46,46.56 -180.39,122 -180.39,122l-204.02 -161.96c68,-66.54 68.74,-235.9 73.92,-282.49z"/>
   <path class="fil16" d="M10107.58 7536.61l224.74 166.4c2.19,1.48 5.9,1.48 7.38,-0.74l31.8 -42.89c1.46,-2.22 1.46,-5.93 -0.74,-7.38l-224.73 -166.4c-2.23,-1.48 -5.93,-1.48 -7.41,0.74l-31.78 42.89c-2.22,2.23 -1.48,5.9 0.74,7.38z"/>
   <path class="fil16" d="M8582.47 8271.71c22.91,56.94 353.38,542.79 793.22,765.38 55.46,28.1 363.72,-332.79 496.81,-522.1 74.66,-105.75 439.84,-729.14 474.58,-802.37 2.97,-6.65 2.22,-13.31 -1.45,-18.47 -1.48,-1.48 -235.11,-165.66 -238.05,-166.4 -5.93,-0.74 -12.57,1.48 -16.27,6.67 0,0 -530.07,560.54 -782.88,835.63 0,0 -512.31,-717.31 -739.27,-871.14 -291.28,-195.98 -124.19,434.84 13.31,772.8z"/>
   <path class="fil20" d="M8568.42 7499.65c0,0 211.43,432.62 158.2,979.86 0,-0.74 -303.09,-823.09 -158.2,-979.86z"/>
   <polygon class="fil2" points="6959.78,9987.29 7215.05,9936.81 7458.89,11170.83 7203.59,11221.28 "/>
   <path class="fil2" d="M6396.48 14116.78c27.36,0 53.95,5.92 77.6,16.27l181.14 -227.04 1326.22 -133.85 0 -1482.7 47.34 0 0 -876.33 356.31 0 0 876.33 47.31 0 0 1482.7 1326.25 133.85 173.72 217.43c16.28,-4.44 32.52,-6.66 50.28,-6.66 107.92,0 195.15,87.26 195.15,195.23 0,107.95 -87.23,195.24 -195.15,195.24 -107.95,0 -195.19,-87.29 -195.19,-195.24 0,-45.85 16.27,-88 42.15,-121.28l-120.49 -133.11 -1276.72 0 0 3.7 -121.97 0 0 202.62c48.04,35.5 79.85,92.44 79.85,156.76 0,107.98 -87.24,195.24 -195.19,195.24 -107.92,0 -195.15,-87.26 -195.15,-195.24 0,-64.32 31.77,-121.26 79.85,-156.76l0 -202.62 -99.06 0 0 -3.7 -1276.72 0 -140.47 154.56c17.01,28.84 27.36,62.84 27.36,99.09 0,107.98 -87.23,195.24 -195.16,195.24 -107.95,0 -195.18,-87.26 -195.18,-195.24 0.74,-107.23 87.97,-194.49 195.92,-194.49z"/>
   <path class="fil23" d="M7146.84 11132.12l2653.19 0c90.94,0 164.86,88 164.86,196.71 0,108.7 -73.92,196.7 -164.86,196.7l-2653.19 0c-76.89,0 -141.21,-62.84 -159.7,-147.91 -2.94,-97.6 0,-245.5 159.7,-245.5z"/>
   <path class="fil23" d="M6996.77 11244.51c25.88,68.05 82.79,114.65 149.33,114.65l2653.22 0c66.54,0 123.45,-46.6 149.33,-113.91 -25.88,-67.28 -83.53,-113.87 -149.33,-113.87l-2653.22 0c-93.16,0.74 -133.06,51.78 -149.33,113.13z"/>
   <path class="fil1" d="M6987.14 11376.88c18.49,85.07 82.81,147.91 159.67,147.91l2653.22 0c90.94,0 164.86,-88.01 164.86,-196.7 0,-29.58 -5.16,-57.68 -15.5,-82.84 -25.88,-67.28 -83.56,-113.87 -149.36,-113.87l-2653.22 0c-93.87,0 -133.05,51.03 -149.33,113.13 -11.82,43.63 -11.82,92.45 -10.34,132.37z"/>
   <path class="fil3" d="M6996.77 11244.51c25.88,68.05 82.79,114.65 149.33,114.65l2653.22 0c66.54,0 123.45,-46.6 149.33,-113.91 -25.88,-67.28 -83.53,-113.87 -149.33,-113.87l-2653.22 0c-93.16,0.74 -133.06,51.78 -149.33,113.13z"/>
   <path class="fil1" d="M6003.18 7366.54l615.79 3038.63c23.65,116.1 133.8,193.02 250.61,174.55l89.46 -14.08 759.22 -117.58c119.01,-18.46 201.83,-128.66 185.55,-248.47l-407.32 -2997.96c-5.19,-40.67 -21.46,-76.92 -45.11,-107.24 -44.35,-56.94 -116.05,-90.22 -192.2,-83.56l-1057.14 90.23c-133.09,12.57 -225.48,136.07 -198.86,265.48z"/>
   <path class="fil3" d="M6304.78 7440.49l615.82 3038.64c6.64,32.54 19.95,61.38 38.44,86.51l759.22 -117.58c119.01,-18.46 201.83,-128.66 185.55,-248.47l-407.32 -2997.96c-5.19,-40.67 -21.46,-76.92 -45.11,-107.24l-947.74 81.36c-132.32,11.83 -224.74,135.33 -198.86,264.74z"/>
   <polygon class="fil24" points="12256.61,12452.89 11936.51,12213.28 11649.68,12418.87 11953.5,12744.99 "/>
   <polygon class="fil24" points="10811.35,14117.52 10682.71,13738.16 10330.1,13745.54 10395.87,14186.28 "/>
   <path class="fil17" d="M10751.47 13937.81c37.7,-2.22 65.06,-35.48 60.62,-72.47 -53.24,-428.17 -346.71,-2719.91 -554.44,-2941.77 -229.18,-244.76 -1017.98,-545.01 -1017.98,-545.01 0,0 -1440.82,-26.62 -1501.43,292.84 -118.3,624.89 1994.53,681.83 1994.53,786.84 0,833.44 476.07,2194.85 571.45,2459.62 9.6,27.36 36.22,44.35 65.06,42.89l382.19 -22.94z"/>
   <path class="fil3" d="M13173.28 12312.37c-121.97,99.09 -256.51,193.75 -389.6,280.27 -297.92,193.76 -584.75,344.62 -689.71,405.27 -11.83,7.38 -30.32,1.48 -41.41,-13.31l-37.7 -46.6 -3.71 -4.44 679.4 -427.44 464.98 -292.84c0,0 66.54,59.91 17.75,99.09z"/>
   <path class="fil18" d="M13155.53 12213.28c22.94,34.74 -182.59,177.49 -422.12,328.35 -309.75,194.47 -676.4,401.53 -676.4,401.53 -14.05,8.89 -31.07,6.67 -42.15,-4.41 -1.48,-1.49 -2.23,-2.97 -3.71,-4.45l-116.78 -172.3c-21.46,-31.06 -14.79,-73.21 14.05,-96.89l317.12 -256.59c12.57,-10.37 28.1,-15.53 44.35,-16.27 31.06,-0.74 87.97,-2.22 155.26,-6.67 96.09,-5.93 211.42,-18.49 298.66,-42.15 179.65,-50.29 382.93,-204.1 431.72,-130.15z"/>
   <path class="fil3" d="M11622.32 14545.69c-157.48,5.19 -321.57,-1.48 -479.05,-12.57 -354.84,-25.87 -674.21,-79.87 -793.97,-95.4 -14.04,-1.49 -25.13,-17.02 -25.13,-35.49l-1.48 -59.9 0 -5.92 799.89 70.98 547.05 48.82c-0.74,-0.74 15.53,87.26 -47.31,89.48z"/>
   <path class="fil18" d="M11668.91 14455.47c-2.96,41.41 -252.83,30.32 -534.48,5.18 -364.46,-32.54 -781.39,-89.48 -781.39,-89.48 -16.28,-1.48 -28.84,-14.05 -31.07,-29.58 0,-2.22 0,-3.7 0,-5.92l11.83 -219.63c1.48,-31.07 26.62,-55.46 57.68,-56.2l423.6 -13.31c13.31,-0.74 26.61,3.68 36.96,11.83 23.65,17.75 71.7,52.49 130.84,91.7 79.85,53.23 179.65,113.14 263.18,147.16 173.72,69.51 428.78,69.51 422.85,158.25z"/>
   <path class="fil2" d="M12086.59 12344.91c31.03,-27.35 35.48,-73.95 10.34,-107.23 -254.29,-332.77 -1527.31,-1983.37 -1838.54,-2070.63 -185.55,-51.75 -2878.69,45.11 -2844.69,269.19 76.89,508.05 93.9,710.67 338.59,809.01 590.68,235.91 2347.88,-301.7 2347.88,-301.7 0,0 487.18,610.82 797.67,921.41 209.97,210.03 660.9,593.09 814.68,722.5 30.32,25.16 73.92,24.42 103.5,-1.46l270.57 -241.09z"/>
   <path class="fil16" d="M8752.49 9156.9c-27.36,-1466.46 -184.07,-1657.25 -184.07,-1657.25 0,0 -249.87,-200.42 -835.37,-152.34 -487.92,39.92 -763.67,362.37 -900.43,610.1 0,0 215.13,1490.1 375.55,1735.61 160.42,245.54 -510.83,2594.22 318.61,2914.41 438.39,169.36 1125.91,-205.58 1644.15,-36.22 533.74,174.52 -235.85,-1325.22 -446.54,-2202.26 -28.81,-119.8 446.54,-204.84 446.54,-204.84 0,0 -406.61,-394.17 -418.44,-1007.21z"/>
   <path class="fil2" d="M8392.47 8347.14l28.82 -14.79c-105.71,-110.94 -100.52,-266.97 -95.36,-417.83 4.45,-140.52 9.6,-286.2 -73.18,-400.08 -26.62,-36.99 -61.36,-69.5 -101.29,-104.27 -56.91,-51.04 -110.14,-93.93 -192.19,-112.39 -97.6,-21.46 -218.84,0 -315.67,16.98 -29.58,5.19 -63.58,11.11 -95.36,23.68 -55.46,22.17 -102.02,63.58 -126.42,113.88 -51.01,103.53 2.97,198.2 50.27,281.75l8.87 15.53c88.71,158.25 144.17,329.83 163.38,509.51l32.51 -7.38c-19.2,-181.93 -74.66,-354.96 -164.83,-514.69l-8.89 -15.53c-48.05,-85.04 -97.58,-172.3 -51.01,-268.45 20.71,-42.15 60.64,-78.4 105.72,-96.86 26.62,-10.38 56.18,-15.54 85.02,-20.72 97.57,-17.76 208.46,-36.96 298.66,-17.76 75.4,17.02 127.16,58.43 181.1,107.24 38.45,34.77 73.21,65.8 99.06,102.05 79.86,110.2 75.41,253.66 70.99,391.95 -4.44,154.55 -9.6,313.54 99.8,428.18z"/>
   <path class="fil2" d="M8036.9 8852.94c-1.48,-15.53 -3.7,-30.32 -5.93,-45.11 -2.22,-14.79 -4.42,-30.32 -7.38,-45.11 -5.19,-29.58 -11.09,-59.87 -17.75,-88.74 -14.05,-59.16 -30.3,-116.84 -51.76,-173.78 -11.08,-28.1 -22.91,-56.2 -36.96,-83.55 -14.05,-27.36 -30.29,-53.98 -49.53,-79.14 -9.6,-12.57 -20.69,-25.14 -32.51,-36.96 -11.83,-11.83 -25.88,-22.94 -42.15,-32.55 -16.25,-9.6 -34.74,-18.49 -58.4,-22.94 -5.92,-1.45 -12.56,-2.19 -18.49,-2.93 -2.94,0 -6.64,0 -10.35,-0.74l-5.16 0 -5.18 0c-14.05,0 -28.84,2.22 -43.6,5.9l-11.09 2.96c-3.7,1.48 -7.41,2.96 -11.85,3.7 -7.39,2.97 -14.77,6.64 -21.44,10.35 -13.3,8.15 -22.91,17.01 -31.03,25.87 -15.53,17.76 -24.4,35.51 -30.32,52.52 -6.64,17.02 -10.35,33.29 -13.31,49.56 -2.96,16.25 -4.42,32.52 -5.16,48.05 -1.48,31.8 0,62.86 3.68,93.19 1.48,15.53 3.7,30.32 5.92,45.85 2.23,14.79 5.16,30.32 7.39,45.11 22.91,119.06 59.87,234.42 105.72,346.07l5.9 -2.19c-17.72,-57.71 -34.74,-115.39 -48.04,-173.81 -14.79,-58.42 -27.36,-117.58 -36.23,-177.48 -8.86,-59.9 -15.53,-120.54 -11.82,-182.64 2.22,-31.06 5.92,-62.13 17.75,-93.93 5.9,-15.53 14.02,-31.06 26.59,-45.11 5.93,-6.64 13.31,-13.31 22.2,-17.75 4.42,-2.23 8.86,-4.42 13.31,-6.64l7.38 -2.23 8.12 -2.22c11.09,-2.22 21.46,-4.44 31.81,-4.44l3.7 0 3.68 0c2.22,0 5.18,0 7.41,0.74 5.16,0.74 10.34,0.74 14.76,2.22 19.24,3.7 36.22,11.09 50.27,19.98 29.58,17.75 51.75,40.66 70.99,65.06 38.44,48.81 65.77,103.53 89.43,158.27 23.68,55.46 42.89,112.4 59.16,170.07 16.98,57.68 31.03,116.1 43.6,175.26l6.67 -0.74z"/>
   <path class="fil25" d="M7599.25 8956.47c5.93,20.72 30.32,31.07 54.72,24.43 24.39,-6.67 37.7,-29.58 31.77,-50.3 -5.9,-20.72 -30.29,-31.06 -54.69,-24.4 -24.39,6.65 -38.44,29.58 -31.8,50.27z"/>
   <path class="fil25" d="M7990.33 8847.04c5.9,20.69 30.3,31.07 54.69,24.4 24.4,-6.64 37.71,-29.58 31.8,-50.27 -5.92,-20.72 -30.32,-31.07 -54.71,-24.42 -23.65,7.4 -37.7,29.58 -31.78,50.29z"/>
   <path class="fil26" d="M8269.49 8352.25c-20.92,-68.77 19.11,-141.87 89.41,-163.3 70.3,-21.41 144.25,16.98 165.18,85.75 20.93,68.76 -19.08,141.84 -89.38,163.27 -70.3,21.41 -144.28,-16.96 -165.21,-85.72z"/>
   <path class="fil27" d="M8281.59 8347.11c19.23,62.13 85.75,96.89 149.33,77.66 63.58,-19.21 99.8,-85.78 80.59,-147.9 -19.24,-62.13 -85.78,-96.87 -149.33,-77.66 -62.84,19.98 -99.06,85.81 -80.59,147.9z"/>
   <path class="fil28" d="M8300.74 8342.38c-15.93,-52.34 14.53,-108.01 68.03,-124.3 53.52,-16.3 109.8,12.93 125.75,65.27 15.93,52.36 -14.52,108.03 -68.02,124.33 -53.53,16.29 -109.8,-12.94 -125.76,-65.3z"/>
   <polygon class="fil29" points="17344.23,14627.77 17537.9,14604.85 17057.39,10287.59 16580.56,10343.05 "/>
   <polygon class="fil29" points="5765.13,14627.77 5571.46,14604.85 6062.31,10349.72 6538.41,10405.17 "/>
   <polygon class="fil16" points="4305.82,9883.81 17845.43,9883.81 18416.13,10287.59 4876.56,10287.59 "/>
   <polygon class="fil3" points="4877.27,10287.59 18416.13,10287.59 18416.13,10517.6 4877.27,10517.6 "/>
   <polygon class="fil30" points="4876.56,10287.59 4305.85,9883.81 4305.85,10092.36 4876.56,10517.6 "/>
   <path class="fil19" d="M8582.44 9766.97l19.24 247.76c0.74,5.9 7.38,10.34 14.05,8.86 6.64,-1.48 15.5,-2.96 25.87,-5.18 20.69,-3.68 46.57,-8.87 70.97,-12.57 3.7,-0.74 7.38,-1.48 11.08,-2.22 0.74,0 1.48,0 2.97,0 0.74,0 2.22,0 2.96,-0.74 0.74,0 0.74,0 1.48,0 10.35,-1.46 19.95,-2.94 27.33,-3.68 3.71,0 6.67,-0.74 10.35,-0.74 2.96,0 5.92,0 8.89,0 0.74,0 2.22,0 2.96,0 5.9,0 11.09,0.74 17.73,1.48 39.18,3.68 86.49,15.53 147.85,25.13 107.21,17.02 154.51,17.02 254.31,59.16 90.2,38.45 118.27,50.3 161.16,73.96 20.69,11.08 72.44,2.96 5.16,-48.82 -106.44,-81.33 -251.33,-142.72 -246.91,-149.38 6.67,-9.61 238.05,105.75 305.33,149.38 45.09,29.58 72.44,-5.9 61.36,-26.62 -19.98,-37.7 -334.89,-187.08 -326.02,-207.06 4.44,-10.34 118.27,51.04 225.48,110.94 79.08,43.63 130.09,95.38 158.19,65.06 64.32,-69.5 -370.36,-252.91 -370.36,-257.33 0,-11.12 198.86,54.71 354.09,168.59 24.39,17.75 53.97,-21.43 5.18,-65.06 -86.49,-76.92 -272.78,-153.09 -320.09,-167.14 -62.1,-17.75 -150.81,-66.57 -419.92,-4.44 -2.94,0.74 -6.64,1.48 -9.6,2.22 -1.48,0 -2.23,0.74 -3.68,0.74 -2.96,0.74 -5.93,1.48 -8.89,1.48 -11.83,2.22 -25.88,4.45 -42.12,7.38 -2.22,0 -5.19,0.74 -7.41,0.74 -0.74,0 -1.48,0 -2.94,0 -1.48,0 -2.22,0 -3.7,0.75 -26.62,3.7 -54.72,7.4 -79.11,10.37 -18.47,2.19 -34.74,3.67 -44.35,5.16 -5.18,2.22 -8.89,6.66 -8.89,11.82z"/>
   <path class="fil2" d="M8728.84 9739.62l-3.71 264.74c0.74,0 2.23,0 2.97,-0.74 0.74,0 0.74,0 1.48,0 10.34,-1.46 19.95,-2.94 27.36,-3.68 3.67,0 6.64,-0.74 10.34,-0.74 2.94,0 5.9,0 8.87,0l3.7 -268.45c-2.96,0.74 -5.93,1.48 -8.89,1.48 -11.83,2.97 -25.85,5.16 -42.12,7.39z"/>
   <path class="fil2" d="M8763.84 9918.87c-41.8,-4.39 -72.02,-43.18 -67.47,-86.62 4.58,-43.48 42.18,-75.15 83.98,-70.75 41.83,4.39 72.05,43.18 67.47,86.65 -4.55,43.44 -42.15,75.11 -83.98,70.72z"/>
   <path class="fil16" d="M8728.1 9789.91c-26.62,25.14 -28.84,67.29 -5.19,94.67 23.65,27.36 65.06,29.58 91.68,4.42 26.62,-25.14 28.84,-67.28 5.18,-94.64 -24.39,-27.36 -65.06,-28.84 -91.67,-4.45z"/>
   <polygon class="fil16" points="8653.4,9726.31 8661.55,10029.52 8662.29,10046.51 8742.86,10046.51 8729.55,9726.31 "/>
   <path class="fil20" d="M7208.91 7864.96c280.17,226.3 210.69,383.81 287.58,1635.05 1.48,29.58 1136.97,193.01 1136.97,193.01l-1264.13 -125.7 -160.42 -1702.36z"/>
   <path class="fil16" d="M7275.43 7931.53c-94.62,-166.39 -481.99,-159.01 -469.43,150.1 23.66,601.98 206.25,1619.54 314.2,1772.6 107.92,153.09 1579.8,201.17 1579.8,201.17l-25.88 -359.41c0,0 -1205.73,-119.07 -1209.44,-190.05 -17.72,-334.25 12.57,-1218.7 -189.25,-1574.41z"/>
   <path class="fil24" d="M7489.11 7021.92c0,0 44.37,257.36 36.96,409.68 -10.35,206.32 370.36,457.76 370.36,457.76 0,0 113.85,-304.67 122,-385.26 6.64,-60.64 9.61,-110.94 5.9,-139.78 -10.34,-87.26 -16.24,-186.35 -3.7,-264l-531.52 -78.4z"/>
   <path class="fil31" d="M7866.88 7884.2c0,0 -161.16,-64.35 -368.91,-65.09 0,0.74 175.21,-237.38 368.91,65.09z"/>
   <path class="fil2" d="M7517.95 7231.21l345.22 618.22c4.42,8.15 13.31,50.3 5.16,45.11 -30.29,-19.23 -138.22,-62.12 -203.28,-105.01 -66.54,-43.63 -126.41,-2.22 -157.45,25.16 -13.31,11.83 -34.03,3.68 -36.25,-14.05l-17.72 -383.83 64.32 -185.6z"/>
   <path class="fil27" d="M7873.52 7933.01c0,0 0.74,1.46 1.48,2.94 0.74,1.48 0.74,2.96 1.48,3.7 13.31,35.51 27.36,70.99 42.15,106.5 1.46,4.44 2.94,8.12 5.16,12.57 51.01,126.44 105.73,254.39 161.16,403.04 0,0.74 0.74,1.48 0.74,2.22 11.08,26.62 37.7,38.44 62.1,34.74 1.48,0 2.96,-0.74 3.7,-0.74 14.79,-3.68 28.1,-12.57 36.96,-28.1 5.9,-11.09 7.38,-23.65 2.97,-35.48 -29.58,-77.66 -141.95,-374.94 -181.14,-465.91 -53.95,-125.7 34.74,-201.13 89.46,-231.45 21.43,-11.83 -93.88,-559.07 -85.01,-505.09 48.79,306.89 -121.23,503.6 -150.82,599.73 -8.12,26.64 -7.38,56.96 9.61,101.33z"/>
   <path class="fil32" d="M7489.13 7021.92c0,0 0.72,1.48 1.46,3.7 50.27,103.54 207.01,354.23 533.77,338.7 -10.37,-91.71 -16.27,-195.98 -3.71,-278.05l-531.52 -64.35z"/>
   <path class="fil24" d="M7352.34 6720.19c51.01,292.13 316.42,540.6 516.02,556.13 226.93,17.75 298.66,-447.41 247.65,-739.51 -51.01,-292.1 -260.22,-414.13 -484.24,-374.94 -225.48,39.95 -331.18,266.22 -279.43,558.32z"/>
   <path class="fil2" d="M7671.72 6341.57c-55.46,3.71 -99.8,45.85 -107.21,100.57 -9.6,73.95 -36.96,189.34 -111.63,264.03 -116.81,117.58 -83.52,179.68 -83.52,179.68 0,0 -206.27,-181.16 -167.83,-333.51 38.44,-152.35 -46.57,-388.99 250.61,-428.18 156,-20.71 270.57,-178.22 425.82,-120.54 237.31,88 354.86,249.95 339.33,459.24 -20.71,275.82 -98.32,244.02 -98.32,244.02 0,0 -172.27,-51.01 -268.36,-248.47 -48.05,-99.83 -119.75,-120.54 -178.89,-116.84z"/>
   <path class="fil24" d="M7424.81 6762.36c11.83,-17.75 25.88,-34.76 5.16,-31.06 -28.1,5.16 17.76,-146.42 -79.08,-136.81 -73.95,7.4 -80.59,113.13 -70.99,154.57 20.69,85.03 72.44,90.22 92.42,144.19 17.73,48.82 63.58,4.45 39.18,-49.55 -16.27,-34 -2.22,-58.42 13.31,-81.34z"/>
   <path class="fil2" d="M8013.99 7232.69l81.33 512.47c0,0 177.4,-3.7 215.11,17.75 11.08,6.67 23.65,-5.92 17.75,-17.75l-208.47 -393.41 -105.72 -119.06z"/>
   <polygon class="fil33" points="11782.74,9943.71 11782.74,9988.09 10282.02,10241.74 10282.02,10195.15 "/>
   <polygon class="fil3" points="11782.74,9943.71 10282.02,10195.15 9546.45,10069.44 11048.65,9870.5 "/>
   <polygon class="fil17" points="9546.48,10069.44 9546.48,10119.74 10282.05,10241.74 10282.05,10195.15 "/>
   <path class="fil3" d="M11120.35 7200.88c0,0 1755.75,18.5 1808.25,25.88 26.61,3.71 110.88,36.25 110.88,36.25l-1963.5 0.74c-5.16,0 -10.34,3.7 -11.82,8.12l-479.77 2268.83c0,0 -2.97,0 -7.41,0 -36.22,-3.7 -59.14,-42.15 -47.31,-76.17l446.51 -2144.58c21.46,-60.65 79.85,-118.32 144.17,-119.07z"/>
   <path class="fil2" d="M12986.25 7251.92l-1829.67 -23.68c-55.44,0 -105.71,34.77 -124.2,86.52l-482.73 2170.46c-10.35,28.12 11.08,56.96 40.66,56.22l1686.25 -20.71c47.3,-1.49 90.19,-28.84 112.36,-70.25l714.14 -2005.57c45.09,-87.26 -18.49,-192.27 -116.81,-192.99z"/>
   <path class="fil33" d="M11521.04 8826.33l387.38 0.74c8.86,0 15.5,8.12 13.3,17.01l-279.45 1284.53c-1.48,8.12 3.7,15.53 11.83,16.27l765.15 101.31c14.05,2.22 16.24,21.45 2.93,26.61l-160.41 62.87c-2.2,0.74 -4.42,1.48 -6.64,0.74l-1030.53 -107.98c-8.15,-0.74 -14.05,-8.86 -11.83,-16.27l294.96 -1374.75c1.48,-6.64 7.38,-11.08 13.31,-11.08z"/>
   <path class="fil1" d="M11809.62 8356.96c-88.82,-36.25 -119.72,-166.48 -68.98,-290.91 50.72,-124.41 163.89,-195.87 252.71,-159.63 88.84,36.25 119.72,166.51 69,290.91 -50.75,124.41 -163.88,195.87 -252.73,159.63z"/>
   <polygon class="fil2" points="7341.26,10195.15 6444.53,9901.57 5879.72,9971.84 6649.29,10266.88 "/>
   <polygon class="fil1" points="7170.49,10212.9 7075.11,10200.33 6904.35,10223.27 6896.94,10241 "/>
  </g>
 </g>
</svg>
