<?xml version="1.0" encoding="UTF-8"?>
<!DOCTYPE svg PUBLIC "-//W3C//DTD SVG 1.1//EN" "http://www.w3.org/Graphics/SVG/1.1/DTD/svg11.dtd">
<!-- Creator: CorelDRAW -->
<svg xmlns="http://www.w3.org/2000/svg" xml:space="preserve" width="12.382mm" height="14.552mm" version="1.1" style="shape-rendering:geometricPrecision; text-rendering:geometricPrecision; image-rendering:optimizeQuality; fill-rule:evenodd; clip-rule:evenodd"
viewBox="0 0 1238.2 1455.2"
 xmlns:xlink="http://www.w3.org/1999/xlink"
 xmlns:xodm="http://www.corel.com/coreldraw/odm/2003">
 <defs>
  <style type="text/css">
   <![CDATA[
    .str0 {stroke:#003A70;stroke-width:20;stroke-miterlimit:22.9256}
    .fil0 {fill:#003A70}
   ]]>
  </style>
 </defs>
 <g id="Layer_x0020_1">
  <metadata id="CorelCorpID_0Corel-Layer"/>
  <g id="_2018981604768">
   <path class="fil0 str0" d="M63.05 51.69l0 108c0,44.81 40.18,97.02 76.28,105.16 -22.68,32.82 -39.97,41.41 -51.23,101.01 -5.89,31.19 -1.59,112.08 -1.58,149.11 0,63.74 -0.48,44.13 -39.15,112.71 -37.02,65.64 -88.44,115.14 -24.45,147.85 9.76,4.99 41.67,21.78 48.93,23.66 0,65.84 -7.21,217.92 6.36,266.68 19.01,68.31 86.75,117.01 163.81,117.01l93.89 0 0 252.96c0,11.53 7.18,18.1 15.74,19.89l9.92 0c9.65,-1.95 18.35,-9.61 18.35,-22.74l0 -272.85c0,-59.26 -151.21,20.3 -229.67,-58.9 -14.88,-15.02 -29.35,-40.14 -31.38,-66.23 -4.27,-55.03 -0.32,-167.02 0.04,-233.1 0.22,-39.71 -14.35,-32.63 -46.5,-51.59 -10.99,-6.49 -21.81,-10.85 -32.84,-16.51 2.47,-10.27 7.08,-16.7 12.3,-25.03 5.12,-8.17 9.23,-15.88 13.94,-23.45l57.94 -97.35c16.53,-30.87 -1.78,-155.1 10.49,-220.05 6.62,-35 46.39,-91.71 63.77,-91.71l82.15 0c108.13,0 184.53,83.95 193.17,173.83 1.51,15.62 -1.14,23.19 8.38,31.81 16.35,14.83 41.71,2.49 38.39,-25.67 -16.98,-144.01 -115.47,-225.99 -266.34,-225.45 -66.54,0.24 -105.05,7.44 -132,-34.13 -19.13,-29.5 -11.77,-111.2 -11.77,-150.61 32.23,-7.27 407.25,-2.84 472.37,-2.84 272.5,0 388.21,136.43 404.89,136.43 9.69,0 25.52,1.98 28.35,-18.04 4.32,-30.61 -125.62,-95.87 -147.42,-105.36 -35.01,-15.22 -67.31,-27.67 -108,-37.49 -38.23,-9.22 -85.06,-18.17 -130.88,-18.17l-519.31 0c-19.35,0 -46.94,22.57 -46.94,51.16z"/>
   <path class="fil0 str0" d="M1037.13 222.22c0,14.36 25.97,36.33 41.69,59.09 30.49,44.16 33.68,47.98 55.18,94.34 41.84,90.22 62.63,198.35 47.42,298.99 -2.02,13.36 -3.41,30.49 -6.47,42.23 -2.83,10.84 -7.55,7.51 -38.93,3.57 -63.49,-7.97 -81.29,-13.11 -81.29,21.9 0,18.06 29.43,17.18 44.87,19.06l60.75 6.52c-3.72,43.34 -62.77,143.07 -98.03,186.42 -36.91,45.37 -82.49,82.75 -127.18,121.22l-23.47 19.89c-21.45,18.47 -35.4,33.43 -56.45,33.43 -20.5,0 -69.39,-64.5 -87.28,-83.14l-41.1 -45.45c-61.63,-63.8 -34.31,-61.35 2.97,-98.06 30.45,-29.99 66.82,-47.33 83.58,-89.56 9.63,-24.25 6.62,-49.84 6.62,-81.7 6.5,3.02 146.29,17.06 164.31,17.06 15.88,0 35.34,-39.11 -9.51,-44.8l-137.77 -14.33c-45.74,-4.26 -7.15,-5.56 -51.39,-46.85 -48.15,-44.94 -133.04,-42.32 -176.13,15.76 -23.01,31.01 -21.29,56.23 -21.29,107.27 -12.59,6.45 -21.3,13.47 -33.45,21.59 -12.16,8.13 -22.68,16.52 -34.03,23.88 0,-49.26 0,-98.53 0,-147.79 0,-41.02 13.17,-127.9 -23.47,-127.9 -14.2,0 -23.48,8.99 -23.48,22.74l0 250.11c0,29.78 21.59,45.48 52.82,45.48 16.29,0 46.57,-25.17 59.25,-33.55 23.87,-15.76 45.35,-25.9 48.69,-46.62 5.75,-35.67 -7.79,-55.46 9.44,-84.65 35.4,-59.99 132,-37.04 132,39.76 0,69.57 3.22,71.65 -41.78,110.16 -8.05,6.88 -11.24,11.39 -19.83,17.74l-40.38 34.78c-26.54,25.73 -27.1,34.19 -27.1,67.54 0,29.05 37.86,60.29 57.81,83.26l44.44 50.74c4.16,5.03 6.89,6.9 11.46,11.64 18.75,19.4 38.29,49.52 62.33,61.84l0 230.21c0,16.02 -3.36,43.96 4.29,52.69 3.06,3.49 8.52,6.14 14.44,7l8.02 0c8.39,-1.3 15.99,-7.01 17.35,-19.8l-0.09 -261.58c41.08,-9.27 43.4,-22.64 70.41,-42.63l120.73 -104.74c16.04,-19.5 36.38,-38.65 52.97,-62.38 68.4,-97.84 119.7,-207.38 119.7,-333.1 0,-139.77 -17.47,-205.11 -76.3,-315.47 -18.84,-35.35 -45.09,-70.72 -71.23,-101.53 -26.94,-31.74 -46.11,-5.19 -46.11,7.72z"/>
   <path class="fil0 str0" d="M168.67 901.5c0,44.31 126.04,9.82 218.85,29.59 44.05,9.38 89.86,31.11 124.92,58.04 62.15,47.76 100.32,116.7 113.97,193.71 5.31,29.96 3.22,133.92 2.82,176.33 -0.58,59.84 47.02,40.9 47.02,14.14 0,-169.55 14.46,-265.01 -103.52,-391.42l-48.19 -38.59c-101.33,-74.29 -208.25,-64.53 -332.4,-64.53 -16.1,0 -23.47,12.44 -23.47,22.73z"/>
   <path class="fil0 str0" d="M171.6 995.3c0,43.67 82.88,9.9 154.99,28.92 146.44,38.62 100.22,207.82 105.96,349.26 1.39,34.18 44.19,31.05 44.19,2.67l0 -230.22c0,-85.75 -88.33,-170.53 -176.04,-170.53l-105.63 0c-12.55,0 -23.47,8.76 -23.47,19.9z"/>
  </g>
 </g>
</svg>
