<svg width="62" height="55" viewBox="0 0 62 55" fill="none" xmlns="http://www.w3.org/2000/svg">
<g clip-path="url(#clip0)">
<path d="M48.8409 9.65548e-05C45.129 -0.0410326 41.561 1.4499 38.9802 4.11302C33.6334 2.81745 28.0604 2.81745 22.7136 4.11302C20.1327 1.4499 16.5648 -0.0410326 12.8529 9.65548e-05C5.76837 9.65548e-05 0 5.06927 0 11.3106C0 13.5316 0.719761 15.7012 2.05646 17.48C2.35465 20.359 5.22341 22.6211 8.7091 22.6211C12.3902 22.6211 15.3926 20.0814 15.3926 16.9659C15.3926 13.8503 12.421 11.3106 8.73995 11.3106C7.86596 11.3106 6.99196 11.4443 6.16938 11.7322C6.15909 11.5882 6.15909 11.4546 6.16938 11.3106C6.16938 8.47271 9.17181 6.16947 12.8529 6.16947C14.7962 6.13863 16.6779 6.84811 18.1174 8.15396L19.5364 12.2155V12.3389L24.2148 25.7984C23.1866 27.0837 22.621 28.6877 22.621 30.3329C22.621 31.0526 22.7239 31.7724 22.9398 32.4613C24.2251 36.348 25.0477 40.3787 25.3767 44.4607L25.4487 45.8489C25.6235 48.6868 25.0374 51.5247 23.7624 54.0747L25.5926 55.0001C26.1787 53.8382 26.6311 52.6146 26.9499 51.3499C29.4999 52.0594 32.1939 52.0594 34.7439 51.3499C35.0626 52.6146 35.515 53.8382 36.1011 55.0001L37.9314 54.0747C36.6564 51.5247 36.0703 48.6868 36.2451 45.8489L36.3479 43.9261C36.4816 40.2039 37.2219 36.5331 38.5483 33.0577C39.5354 30.6105 39.1138 27.8137 37.4584 25.7572L42.1574 12.3389V12.2669L43.5661 8.15396C45.0056 6.84811 46.8975 6.13863 48.8409 6.16947C52.522 6.16947 55.5244 8.47271 55.5244 11.3106C55.5347 11.4546 55.5347 11.5882 55.5244 11.7322C54.7018 11.4546 53.8278 11.3106 52.9538 11.3106C49.2728 11.3106 46.2703 13.8503 46.2703 16.9659C46.2703 20.0814 49.2728 22.6211 52.9538 22.6211C56.4395 22.6211 59.3083 20.3488 59.6065 17.48C60.9432 15.7012 61.6629 13.5316 61.6629 11.3106C61.6938 5.06927 55.9254 9.65548e-05 48.8409 9.65548e-05ZM13.367 16.9659C13.367 18.9504 11.3105 20.5647 8.73995 20.5647C6.16938 20.5647 4.11292 18.9504 4.11292 16.9659C4.11292 14.9814 6.16938 13.3671 8.73995 13.3671C11.3105 13.3671 13.367 14.9814 13.367 16.9659ZM34.2915 43.813V44.1523C32.0499 44.7795 29.6747 44.7795 27.4332 44.1523C27.3715 43.124 27.2584 42.0958 27.1144 41.0676C29.5513 41.7257 32.1116 41.7257 34.5485 41.0676C34.4251 41.9621 34.3429 42.867 34.2915 43.813ZM34.8364 38.8466C32.2041 39.7206 29.356 39.7 26.734 38.7849C26.518 37.6847 26.2713 36.6153 26.0039 35.5768C29.0989 36.6668 32.4715 36.6873 35.5767 35.6385C35.258 36.6668 35.0318 37.7258 34.8364 38.8466ZM27.3612 49.2831C27.4949 48.296 27.5463 47.2987 27.5154 46.3013C29.7055 46.8257 31.9882 46.8257 34.1783 46.3013C34.1475 47.2987 34.1989 48.296 34.3326 49.2831C32.0602 49.9412 29.6336 49.9412 27.3612 49.2831ZM37.0163 30.3329C37.0163 31.0012 36.8929 31.6696 36.6358 32.2865C36.533 32.5538 36.4302 32.8315 36.3376 33.1091C32.8314 34.7748 28.7699 34.7748 25.2636 33.1091C25.1402 32.6978 25.0271 32.2968 24.9037 31.9061C24.7495 31.3919 24.6672 30.8675 24.6775 30.3329C24.6775 29.6234 24.8317 28.9242 25.1094 28.2764L25.5309 29.4794C25.8188 30.302 26.6003 30.847 27.464 30.847H28.1529C29.284 30.847 30.2094 29.9216 30.2094 28.7905C30.2094 28.4718 30.1374 28.1633 29.9935 27.8754L29.4485 26.7341C29.2326 26.2919 29.356 25.7572 29.7467 25.4591C30.1683 25.1506 30.5384 24.7804 30.8469 24.3486C31.1554 24.7907 31.5255 25.1814 31.9471 25.5002C32.3173 25.7984 32.4406 26.3022 32.2453 26.7341L31.7003 27.8343C31.1759 28.8419 31.5564 30.0861 32.564 30.6105C32.8622 30.7647 33.2015 30.847 33.5408 30.847H34.2298C35.1038 30.847 35.8749 30.2917 36.1628 29.4692L36.5844 28.2661C36.8723 28.9242 37.0163 29.6234 37.0163 30.3329ZM52.9538 20.5647C50.3832 20.5647 48.3268 18.9504 48.3268 16.9659C48.3268 14.9814 50.3832 13.3671 52.9538 13.3671C55.5244 13.3671 57.5808 14.9814 57.5808 16.9659C57.5808 18.9504 55.5244 20.5647 52.9538 20.5647ZM58.969 14.5084C58.568 13.8195 58.023 13.2231 57.3855 12.7501C57.5089 12.2772 57.5706 11.7939 57.5808 11.3106C57.5808 7.34166 53.6633 4.11302 48.8409 4.11302C46.2703 4.0616 43.7923 5.0487 41.9723 6.85839C41.8901 6.94065 41.8284 7.03319 41.777 7.13601L41.7153 7.2594L40.2038 11.6088V11.6808L34.2298 28.7905H33.5408L34.0858 27.6903C34.7439 26.3639 34.3634 24.7496 33.181 23.855C31.9882 22.9605 31.6078 21.3461 32.2761 20.0094L33.8185 16.9248C35.0626 14.457 37.0677 12.452 39.5354 11.2078L38.61 9.37755C35.7413 10.8171 33.4277 13.1306 31.9882 15.9993L30.8469 18.2615L29.7055 15.9891C28.266 13.1203 25.9525 10.8068 23.0838 9.36727L22.1583 11.1975C24.6261 12.4417 26.6311 14.4467 27.8753 16.9145L29.4176 19.9992C29.9215 21.0171 29.8289 22.2407 29.1606 23.1661C28.9858 23.4232 28.7596 23.6494 28.5128 23.8345C27.3303 24.729 26.9499 26.3433 27.608 27.6698L28.1529 28.7905H27.4743L21.5208 11.6911V11.6088L20.0196 7.2594C19.9682 7.11545 19.886 6.99206 19.7831 6.87895C17.9426 5.0487 15.444 4.05132 12.8529 4.11302C8.03047 4.11302 4.11292 7.34166 4.11292 11.3106C4.1232 11.7939 4.18489 12.2772 4.30828 12.7501C3.67078 13.2231 3.12582 13.8195 2.72481 14.5084C2.29295 13.5008 2.06674 12.4108 2.05646 11.3106C2.05646 6.16947 6.89942 2.05656 12.8529 2.05656C16.1843 2.00514 19.3616 3.40354 21.5928 5.87129C21.8499 6.15919 22.2509 6.2723 22.621 6.16947L23.0015 6.07693C28.1632 4.79165 33.5511 4.79165 38.7128 6.07693L39.0727 6.16947C39.4532 6.26201 39.8439 6.13863 40.1009 5.84044C42.3322 3.38297 45.5197 2.00514 48.8409 2.05656C54.7943 2.05656 59.6373 6.16947 59.6373 11.3106C59.627 12.4108 59.4008 13.5008 58.969 14.5084Z" fill="#003974"/>
<path d="M34.0858 7.38274C31.9574 7.91742 29.7364 7.91742 27.608 7.38274L22.8678 6.16943L22.3743 8.22589L27.1041 9.40836C29.5616 10.0253 32.1322 10.0253 34.5896 9.40836L39.3195 8.22589L38.8259 6.16943L34.0858 7.38274Z" fill="#003974"/>
</g>
<defs>
<clipPath id="clip0">
<rect width="61.6629" height="55" fill="white"/>
</clipPath>
</defs>
</svg>
