<?xml version="1.0" encoding="UTF-8"?>
<!DOCTYPE svg PUBLIC "-//W3C//DTD SVG 1.1//EN" "http://www.w3.org/Graphics/SVG/1.1/DTD/svg11.dtd">
<!-- Creator: CorelDRAW -->
<svg xmlns="http://www.w3.org/2000/svg" xml:space="preserve" width="11.642mm" height="14.552mm" version="1.1" style="shape-rendering:geometricPrecision; text-rendering:geometricPrecision; image-rendering:optimizeQuality; fill-rule:evenodd; clip-rule:evenodd"
viewBox="0 0 1164.2 1455.2"
 xmlns:xlink="http://www.w3.org/1999/xlink"
 xmlns:xodm="http://www.corel.com/coreldraw/odm/2003">
 <defs>
  <style type="text/css">
   <![CDATA[
    .fil0 {fill:#003974}
   ]]>
  </style>
 </defs>
 <g id="Layer_x0020_1">
  <metadata id="CorelCorpID_0Corel-Layer"/>
  <path class="fil0" d="M770.56 301.11c60.01,0 129.55,63.57 175.06,113.6 40.1,44.11 85.33,130.38 108.98,196.68 84.17,236.01 81.47,474.75 81.47,760.02 0,25.33 -8.25,43.99 -25.74,43.99l-223.93 0c-39.85,0 -73.26,-50.11 -90.11,-84.27 -19.65,-39.79 -34.24,-95.87 -43.76,-150.31 -10.27,-58.73 -10.98,-79.08 -16.58,-133.98 -1.73,-17.04 -1.13,-33.9 -2.92,-50.84l-8.8 -203.72c20.3,15.31 97.03,104.3 119.19,130.83 29.43,35.19 24.96,19.39 24.96,85.43 0,24.89 -4.32,92.33 -12.91,113.59 -4.07,10.07 -12.84,15.25 -12.84,25.69 0,41.94 44.59,34.59 51.32,-99.19 1.03,-20.26 2.74,-37.22 2.74,-54.75 13.99,13.34 49.26,72.68 61.42,95.8 13.15,25.03 27.38,53.48 37.25,82.57 7.57,22.33 5.89,26.9 19.73,26.9 50.14,0 -84.15,-223.05 -120.59,-264.47l-29.31 -35.24c-40.73,-51.68 -96.44,-112.36 -140.96,-154.81l0 -80.63c9.88,3.75 69.8,66.34 80.31,76.23l137.39 192.88c10.44,19.25 20.8,32.04 32.63,48.85 23.01,32.74 34.85,69.57 50.82,26.58 -9.34,-25.15 -22.74,-41.55 -36.67,-61.4 -7.06,-10.05 -12.24,-17.45 -19.31,-27.49 -8.71,-12.35 -11.56,-17.59 -19.42,-30.99 -11.02,-18.77 -27.18,-39.18 -39.81,-56.94 -8.31,-11.71 -11.36,-19.94 -19.23,-31.25 -7.3,-10.53 -14.45,-18.4 -19.99,-30.18 26.91,0 136.42,-5.06 136.42,-54.98 0,-8.76 -5.8,-15.48 -11.27,-17.05 -12.68,-3.61 -10.73,15.86 -56.35,27.05 -24.71,6.08 -88.05,17 -108.25,-5.15l-45.48 -45.18c-8.18,-7.72 -53.98,-55.66 -61.79,-58.65 0,-30.24 9.83,-315.22 46.33,-315.22zm-486.49 432.53c-35.22,0 -78.79,-5.34 -107.59,-30.37 -28.91,-25.12 -63.26,67.02 112.73,67.02 -3.5,7.47 -12.45,23.12 -17.31,30.32l-97.75 143.04c-20.87,35.54 -36.79,46.27 -36.79,68.56 0,15.24 9.53,14.66 15.44,14.66 10.36,0 27.22,-36.23 34.07,-46.78l149.41 -219.77 102.23 -99.99c0,109.42 13.97,64.67 -84.99,172.22 -7.47,8.11 -14.58,17.33 -22.52,26.56l-46.31 55.01c-34.45,45.92 -52.82,69.61 -83.61,119.19 -6.55,10.54 -99.41,165.84 -48.28,165.84 8.75,0 15.43,-31.08 25.58,-55.2 25.63,-60.92 34.38,-64.72 55.7,-103.97 9.15,-16.85 20.28,-34.94 31.97,-46.1 0,42.76 4.19,175.93 43.77,175.93 7.9,0 10.29,-10.73 10.29,-21.99 0,-18.5 -12.94,-2.67 -20.31,-62.73 -6.1,-49.88 -5.43,-74.87 -5.43,-124.19 0,-11.71 23.52,-36.74 31.66,-46.57l52.93 -60.25c7.48,-7.94 11.04,-13.23 18.86,-20.78 10.38,-10.02 30.66,-34.51 38.12,-37.35 0,68.15 -5.47,131.14 -7.73,197.93 -3.64,107.32 -22.91,246.37 -61.89,333.38 -16.99,37.92 -54.1,88.14 -87.4,88.14l-229.09 0c-9.41,0 -17.66,-9.06 -20.99,-17.74 -7.99,-20.78 -4.74,-134.04 -4.74,-165.52 0,-250.44 24.47,-498.26 99.87,-664.17l25.85 -54.84c33.96,-66.21 84.11,-129.01 135.96,-165.59 25.69,-18.14 68.61,-46.43 101.25,-46.43 19.67,0 21.71,27.12 26.32,50.51 4.31,21.89 8.69,51.47 11.59,75.12 3.52,28.57 3.95,51.52 6.95,81.73l4.05 100.53c0,12.38 -25.71,31.73 -32.45,38.1l-70.01 68.93c-14.62,14.59 -19.81,17.61 -49.41,17.61zm241.96 -205.27c-10.39,7.84 -21.72,18.66 -31.28,28.76 -10.36,10.96 -20.02,19.9 -30.5,29.88 -10.6,-64.84 -1.55,-326.22 -77.22,-326.22 -18.83,0 -35.65,8.96 -52.99,16.17 -67.56,28.08 -123.1,86.91 -171.61,155.17 -22.55,31.75 -52.89,91.13 -67.96,130.48 -37.06,96.9 -51.1,152 -69.88,259.69 -32.29,185.09 -26.23,366.81 -26.23,560.11 0,44.84 27.01,73.32 59.2,73.32l216.21 0c48.99,0 99.25,-63.9 121.89,-123.34 6.46,-16.98 8.94,-23.6 14.59,-41.54 23.75,-75.42 36.4,-157.71 41.36,-241.68l9.37 -169.92c1.8,-18.69 -0.4,-38.38 1.07,-57.11 1.51,-19.13 2.2,-34.83 2.2,-59.18 11.22,-4.26 105.21,-100.46 116.2,-101.58 9.01,-0.92 102,88.73 115.47,101.58l12.78 278.67c3.04,78.35 19.28,176.46 40.51,246.55 4,13.18 9.12,27.65 13.74,39.09 22.66,56.13 68.61,128.46 123.45,128.46l218.79 0c16.58,0 29.64,-7.8 38.66,-18.24 9.89,-11.43 17.96,-30.72 17.96,-51.42 0,-319.69 10.58,-544.33 -96.92,-825.97 -38.71,-101.39 -117.22,-212.97 -192.45,-257.44 -110.64,-65.39 -137.71,-67.99 -159.6,88.54 -8.43,60.31 -14.35,125.6 -14.35,195.81l-61.78 -58.64 0.02 -476.53c0.26,-54.97 -4.19,-54.78 -25.76,-47.63 -6.63,40.53 -2.57,451.57 -2.57,527.82 0,24.53 17.72,30.84 39.33,53.95 8.48,9.08 40.44,42.08 48.19,45.03l0 84.3c-17.69,-13.33 -103.04,-98.98 -115.47,-97.84 -10.6,0.98 -101.41,87.4 -116.2,101.51 0,-20.72 -1.46,-54.34 -0.09,-73.45 1.37,-19.18 9.8,-21.32 27.4,-37.96 8.2,-7.75 60.21,-52.6 60.21,-68.2l0 -524.16c0,-15.24 -9.53,-14.66 -15.44,-14.66 -14.57,0 -10.35,31.15 -10.31,51.31l0.01 476.51z"/>
 </g>
</svg>
