<svg width="45" height="45" viewBox="0 0 45 45" fill="none" xmlns="http://www.w3.org/2000/svg">
<path d="M22.5005 45C34.9067 45 45 34.9067 45 22.4995C45 10.0943 34.9067 0 22.5005 0C10.0943 0 0 10.0943 0 22.4995C0 34.9067 10.0943 45 22.5005 45ZM22.5005 2.82026C33.3514 2.82026 42.1797 11.6486 42.1797 22.4995C42.1797 33.3514 33.3514 42.1797 22.5005 42.1797C11.6476 42.1797 2.82026 33.3514 2.82026 22.4995C2.81928 11.6486 11.6476 2.82026 22.5005 2.82026Z" fill="#003974"/>
<path d="M13.9223 27.5524H17.4465V31.0775C17.4465 31.8556 18.078 32.4861 18.8561 32.4861H26.1419C26.921 32.4861 27.5506 31.8547 27.5506 31.0775V27.5524H31.0756C31.8538 27.5524 32.4843 26.9218 32.4843 26.1428V18.8589C32.4843 18.0808 31.8528 17.4493 31.0756 17.4493H27.5506V13.9232C27.5506 13.1451 26.92 12.5136 26.1419 12.5136H18.8561C18.078 12.5136 17.4465 13.1451 17.4465 13.9232V17.4484H13.9223C13.1433 17.4484 12.5117 18.0798 12.5117 18.858V26.1418C12.5117 26.9218 13.1433 27.5524 13.9223 27.5524ZM15.332 20.2676H18.8561C19.6352 20.2676 20.2667 19.6361 20.2667 18.858V15.3339H24.7313V18.858C24.7313 19.6361 25.3627 20.2676 26.1419 20.2676H29.666V24.7321H26.1419C25.3627 24.7321 24.7313 25.3636 24.7313 26.1418V29.6668H20.2667V26.1418C20.2667 25.3636 19.6352 24.7321 18.8561 24.7321H15.332V20.2676Z" fill="#003974"/>
</svg>
