<?xml version="1.0" encoding="UTF-8"?>
<!DOCTYPE svg PUBLIC "-//W3C//DTD SVG 1.1//EN" "http://www.w3.org/Graphics/SVG/1.1/DTD/svg11.dtd">
<!-- Creator: CorelDRAW -->
<svg xmlns="http://www.w3.org/2000/svg" xml:space="preserve" width="12.382mm" height="14.552mm" version="1.1" style="shape-rendering:geometricPrecision; text-rendering:geometricPrecision; image-rendering:optimizeQuality; fill-rule:evenodd; clip-rule:evenodd"
viewBox="0 0 1238.2 1455.2"
 xmlns:xlink="http://www.w3.org/1999/xlink"
 xmlns:xodm="http://www.corel.com/coreldraw/odm/2003">
 <defs>
  <style type="text/css">
   <![CDATA[
    .fil0 {fill:#003A70}
   ]]>
  </style>
 </defs>
 <g id="Layer_x0020_1">
  <metadata id="CorelCorpID_0Corel-Layer"/>
  <g id="_2019275415488">
   <path class="fil0" d="M47.76 1399.8l416.87 -408.45 48.24 45.65c-13.03,18.53 -101.35,94.07 -105.43,107.52 -3.58,11.8 -4,34.43 -3.85,49.23 0.47,47.99 -6.43,40.1 -64.09,96.39 -57.16,55.8 -84.65,96.29 -152.61,115.95 -51.4,14.88 -91.66,4.5 -139.13,-6.29zm421.44 -464.41l46.64 -47.13 102.58 98.69 -48.26 48.54 -100.96 -100.1zm181.64 19.9l-103.27 -99.36c16.98,-11.31 461.79,-449.16 508.09,-494.53 15.38,-15.08 22.17,-24.58 50,-27.77 21.24,-2.43 41.66,3.15 57.03,16.01 12.15,10.17 24.9,31.14 24.9,52.23 0,41.69 -29.81,60.02 -52.02,81.69 -47.95,46.82 -468.52,461.14 -484.73,471.73zm-364.86 -574.02c0,-73.5 7.13,-121.51 46.5,-184.22 5.38,-8.56 9.67,-14.81 15.56,-23.07 55.77,-78.31 161.68,-131.24 263.6,-131.24 120.92,0 244.14,74.82 292.5,176.62 30.06,63.29 33.17,94.07 33.17,161.91 0,10.06 -1.16,26.46 -3.85,34.52 -3.69,11.1 -226.03,224.47 -254.58,251.9 -31.5,30.25 -200.08,15.98 -292.65,-75.21 -55.72,-54.89 -100.25,-128.41 -100.25,-211.21zm-45.23 -17.66c0,110.34 52.98,200.51 110.76,256.88l51.58 40.9c36.06,26.14 86.38,45.47 130.87,54.77l83.71 9.52 -154.54 152.34c-37.53,36.65 -68.93,54.37 -29.4,80.22 -8.65,12.62 -113.39,112.16 -133.43,131.73 -45.47,44.39 -88.72,86.61 -134.19,131l-167.24 163.57c-33.2,43.53 73.99,71.19 112.21,71.19 123.44,0 152.33,-29.49 223.9,-99.35l101.02 -98.61c11.82,-14.02 12.26,-61.3 12.6,-84.85 0.27,-19.3 6.22,-19.04 17.55,-29.97l76.14 -75.79c22.17,14.49 22.41,35.95 59.56,-0.73l563.88 -550.48c35.99,-35.14 72.53,-62.86 63.71,-131.24 -10.95,-84.86 -123.47,-126.9 -193.38,-66 -16.68,14.53 -36.85,39.89 -53.52,50.79 0,-96.66 -27.18,-161.62 -80.08,-230.92 -8.35,-10.93 -14.72,-15.23 -22.43,-25.2 -9.58,-12.4 -12.59,-11.43 -23.41,-21.31 -43.22,-39.46 -89.36,-61.18 -145.78,-78.46 -109.16,-33.43 -258.92,-0.93 -342.69,76.97 -30.75,28.6 -33.1,26.91 -64.1,69.89 -40.61,56.29 -63.3,132.21 -63.3,203.14z"/>
   <path class="fil0" d="M433.73 307.67l105.54 0c27.27,0 18.09,-82.55 18.09,-117.74l108.57 0c0,140.41 -21.84,117.74 123.63,117.74l0 108.92 -99.51 0c-17.98,0 -24.12,11.88 -24.12,29.44l0 88.31 -108.57 0 0 -88.31c0,-17.56 -6.15,-29.44 -24.12,-29.44l-99.51 0 0 -108.92zm78.4 -138.35l0 97.15c-101.68,0 -123.63,-12.01 -123.63,35.32l0 120.69c0,50.14 33.7,38.27 123.63,38.27l0 94.19c0,14.25 9.54,23.56 24.13,23.56l150.77 0c14.59,0 24.12,-9.31 24.12,-23.56l0 -94.19c146.9,0 123.63,24.35 123.63,-158.96 0,-47.33 -21.94,-35.32 -123.63,-35.32l0 -97.15c0,-14.23 -9.53,-23.55 -24.12,-23.55l-150.77 0c-14.59,0 -24.13,9.32 -24.13,23.55z"/>
   <path class="fil0" d="M877 613.82c0,16.47 14.26,20.61 27.14,20.61 9.84,0 110.01,-102.98 118.35,-111.13l85.94 -83.89c5.36,-5.23 45.54,-35.8 11.68,-51.42 -19.57,-9.03 -32.56,12.93 -53.89,33.76l-159.82 156.01c-7.85,7.67 -29.4,24.32 -29.4,36.06z"/>
  </g>
 </g>
</svg>
